<svg width="280" height="320" viewBox="0 0 280 320" fill="none" xmlns="http://www.w3.org/2000/svg" role="img" aria-label="dataset idol anime girl">
  <rect width="280" height="320" rx="18" fill="#151223"/>
  <rect x="34" y="48" width="212" height="160" rx="14" fill="#080713" stroke="#ffffff" stroke-opacity=".11"/>
  <path d="M56 84H224M56 118H224M56 152H224M56 186H224" stroke="#ffffff" stroke-opacity=".08"/>
  <path d="M92 62V200M140 62V200M188 62V200" stroke="#ffffff" stroke-opacity=".08"/>
  <circle cx="140" cy="122" r="52" fill="#ffd7e7"/>
  <path d="M86 124C93 84 122 63 154 66C184 69 206 94 209 130C177 111 121 107 86 124Z" fill="#2f6f5e"/>
  <circle cx="121" cy="131" r="6" fill="#1d2b3d"/>
  <circle cx="162" cy="131" r="6" fill="#1d2b3d"/>
  <path d="M128 154C138 161 151 161 161 154" stroke="#d8527d" stroke-width="4" stroke-linecap="round"/>
  <path d="M73 219C94 188 122 178 145 178C174 178 201 193 216 224C196 264 89 264 73 219Z" fill="#21142f"/>
  <path d="M101 216L140 260L183 216" stroke="#fff1a8" stroke-width="7" stroke-linecap="round"/>
  <text x="140" y="292" text-anchor="middle" fill="#fff7ff" font-family="JetBrains Mono, Menlo, monospace" font-size="13">dataset idol</text>
</svg>
